<svg xmlns="http://www.w3.org/2000/svg" width="1042.000000pt" height="1042.000000pt" viewBox="0 0 1042.000000 1042.000000" preserveAspectRatio="xMidYMid meet"><g transform="translate(0.000000,1042.000000) scale(0.100000,-0.100000)" fill="#000000" stroke="none"><path d="M4930 10404 c-25 -2 -103 -9 -175 -14 -934 -78 -1876 -437 -2640 -1007 -213 -159 -366 -292 -576 -502 -428 -428 -723 -838 -988 -1371 -284 -572 -448 -1143 -517 -1795 -14 -128 -18 -252 -18 -505 0 -253 4 -377 18 -505 69 -652 233 -1223 517 -1795 265 -533 560 -943 988 -1371 428 -428 838 -723 1371 -988 572 -284 1143 -448 1795 -517 239 -26 771 -26 1010 0 652 69 1223 233 1795 517 532 264 944 561 1371 988 428 428 723 838 988 1371 284 572 448 1143 517 1795 14 128 18 252 18 505 0 430 -28 711 -109 1086 -14 64 -23 119 -20 124 6 10 -63 265 -118 430 -147 444 -385 924 -653 1310 -113 164 -262 356 -274 353 -4 -1 -36 32 -71 75 -97 119 -469 487 -609 602 -348 288 -650 485 -1040 679 -568 282 -1147 449 -1785 516 -141 15 -689 28 -795 19z m500 -1913 c41 -11 99 -28 128 -39 92 -36 254 -138 322 -205 60 -59 79 -80 158 -177 102 -125 217 -346 289 -555 29 -84 82 -286 88 -335 3 -19 9 -55 14 -80 19 -88 31 -176 37 -283 6 -103 8 -109 31 -118 14 -5 323 -9 736 -9 669 0 714 -2 752 -19 42 -19 111 -94 133 -144 15 -34 16 -248 2 -384 -5 -54 -19 -231 -30 -393 -25 -362 -39 -553 -51 -690 -12 -147 -26 -344 -38 -555 -6 -99 -15 -232 -21 -295 -6 -63 -14 -176 -20 -250 -25 -360 -52 -712 -66 -875 -8 -99 -17 -234 -20 -300 -11 -283 -106 -536 -258 -681 -67 -65 -225 -154 -273 -154 -13 0 -33 -5 -43 -10 -27 -14 -4188 -14 -4225 0 -14 5 -37 10 -49 10 -32 0 -185 79 -240 125 -46 37 -132 158 -175 242 -42 85 -69 207 -85 385 -15 162 -47 599 -67 908 -4 74 -13 191 -18 260 -9 122 -35 494 -46 655 -3 44 -10 127 -15 185 -6 58 -14 177 -20 265 -5 88 -18 275 -29 415 -11 140 -25 332 -31 425 -6 94 -16 220 -22 280 -6 61 -12 180 -12 265 -1 133 2 160 18 190 26 49 64 88 111 113 40 22 46 22 768 27 842 6 757 -8 757 119 0 41 4 102 10 135 5 34 17 108 26 166 21 137 66 314 120 472 168 489 481 821 853 905 160 36 365 37 501 4z"></path><path d="M5035 8170 c-38 -10 -90 -26 -115 -35 -52 -18 -190 -102 -190 -116 0 -5 -6 -9 -14 -9 -7 0 -25 -18 -40 -40 -14 -22 -30 -40 -35 -40 -14 0 -112 -143 -156 -225 -122 -230 -213 -585 -232 -899 -5 -78 -3 -100 8 -107 18 -11 1850 -11 1868 0 23 15 1 208 -50 451 -54 258 -144 492 -251 656 -57 88 -189 228 -259 276 -30 20 -97 51 -149 69 -124 42 -276 50 -385 19z"></path><path d="M5087 5874 c-125 -19 -200 -41 -292 -85 -160 -77 -304 -214 -367 -349 -16 -36 -33 -72 -38 -80 -19 -38 -43 -162 -44 -225 -2 -151 33 -256 129 -383 96 -127 323 -287 515 -361 19 -7 49 -19 66 -27 17 -7 91 -34 165 -60 266 -91 532 -242 641 -363 59 -66 116 -181 130 -263 28 -161 -48 -350 -181 -451 -150 -114 -366 -175 -577 -163 -194 11 -395 64 -553 146 -42 22 -80 40 -83 40 -4 0 -50 30 -104 66 -122 83 -135 88 -179 69 -89 -36 -111 -114 -53 -181 30 -34 261 -194 280 -194 8 0 160 -62 233 -96 134 -61 490 -98 679 -70 107 16 221 46 269 72 15 8 27 12 27 9 0 -3 37 14 83 39 92 50 224 170 278 251 18 28 36 52 40 55 3 3 21 47 39 98 75 222 43 454 -91 649 -50 72 -176 194 -259 249 -180 121 -321 188 -607 285 -319 108 -561 271 -629 425 -24 54 -26 68 -22 160 3 93 6 107 41 177 64 129 164 215 332 286 90 37 167 51 291 51 202 0 411 -65 594 -184 65 -43 106 -46 147 -12 43 37 58 91 39 139 -9 20 -20 37 -26 37 -5 0 -37 20 -72 44 -128 89 -284 151 -452 181 -44 8 -101 19 -126 24 -61 14 -157 12 -263 -5z"></path></g></svg>